Coordinates
version=1
nRows=16
nColumns=40
inDegrees=yes

Units are S.I. units (second, meters, Newtons, ...)
Angles are in degrees.

endheader
time	pelvis_tilt	pelvis_list	pelvis_rotation	pelvis_tx	pelvis_ty	pelvis_tz	hip_flexion_r	hip_adduction_r	hip_rotation_r	knee_angle_r	knee_angle_r_beta	ankle_angle_r	subtalar_angle_r	mtp_angle_r	hip_flexion_l	hip_adduction_l	hip_rotation_l	knee_angle_l	knee_angle_l_beta	ankle_angle_l	subtalar_angle_l	mtp_angle_l	lumbar_extension	lumbar_bending	lumbar_rotation	arm_flex_r	arm_add_r	arm_rot_r	elbow_flex_r	pro_sup_r	wrist_flex_r	wrist_dev_r	arm_flex_l	arm_add_l	arm_rot_l	elbow_flex_l	pro_sup_l	wrist_flex_l	wrist_dev_l
     35.26800000	     -4.11854998	     -5.01865070	     -3.50335137	      0.84794894	      0.93569629	      0.41763314	     32.35742598	     -4.21447818	     -7.51204237	     51.73900414	     51.73900414	      0.99160881	    -11.43602135	     -0.71786254	     12.24356499	     -5.01680085	     -9.94845887	     18.93102893	     18.93102893	     12.60093032	     -9.98311850	     -2.16295601	    -10.36898178	      6.72218960	      2.40528946	     -2.04868211	    -12.99798732	     -1.99580305	     31.50398692	     46.55874493	      0.00000000	      0.00000000	     23.08052236	    -17.24896958	     -2.76393349	     51.64372962	     46.76156314	      0.00000000	      0.00000000
     35.28100000	     -4.20972276	     -5.02066496	     -3.77696857	      0.84725361	      0.93565722	      0.41788769	     32.28709940	     -3.92809005	     -7.78128596	     47.82757812	     47.82757812	      0.49451355	    -10.82670925	     -2.69269346	     11.65031399	     -5.04525904	    -10.43039998	     18.48009338	     18.48009338	     12.55598962	     -9.68319549	     -3.16413386	    -10.52874446	      6.74748233	      1.38039385	     -2.01488906	    -12.43038579	     -4.77423356	     27.62047746	     46.87946699	      0.00000000	      0.00000000	     21.95519944	    -18.08779857	     -5.21731712	     56.58986644	     47.02503656	      0.00000000	      0.00000000
     35.29400000	     -4.41126786	     -4.98058182	     -4.01038329	      0.84660077	      0.93543495	      0.41812354	     32.22946239	     -3.69429568	     -8.15033376	     43.77303966	     43.77303966	      0.78007040	     -9.52262075	     -2.47964197	     11.19396130	     -4.97683249	    -10.63369884	     18.06337976	     18.06337976	     12.78402245	     -9.54656404	     -3.23434794	    -10.46819604	      6.79330740	      1.47402203	     -3.72099203	    -12.63399499	     -5.01277029	     26.79409894	     46.91180782	      0.00000000	      0.00000000	     22.80419205	    -18.30325081	     -5.54773237	     57.50356786	     47.07015062	      0.00000000	      0.00000000
     35.30700000	     -4.56965326	     -4.89903634	     -4.28315319	      0.84612428	      0.93510520	      0.41855426	     31.92299791	     -3.44957874	     -8.57247592	     39.37575695	     39.37575695	      0.58907702	     -8.10104480	     -3.72451820	     10.63638196	     -4.89560605	    -11.03246224	     17.56673244	     17.56673244	     12.87131658	     -9.27938554	     -3.86023232	    -10.50305023	      6.75544202	      1.33913672	     -5.09991671	    -12.49523827	     -7.34052427	     25.81547784	     47.08290038	      0.00000000	      0.00000000	     22.89606479	    -18.58748093	     -6.67282794	     60.08847373	     47.19968286	      0.00000000	      0.00000000
     35.32000000	     -4.76213750	     -4.82325541	     -4.52612992	      0.84574111	      0.93469400	      0.41906442	     31.53596574	     -3.14567757	     -9.03947525	     34.91039727	     34.91039727	      0.85582581	     -6.30710283	     -3.27420844	     10.13845219	     -4.80022799	    -11.27704414	     17.12868598	     17.12868598	     13.12792898	     -9.12755785	     -3.98983263	    -10.41042009	      6.76948363	      1.38153270	     -6.66723255	    -12.69081992	     -7.58051119	     25.15376105	     47.11072590	      0.00000000	      0.00000000	     23.54627694	    -18.82276184	     -6.90982759	     61.00359065	     47.23542943	      0.00000000	      0.00000000
     35.33300000	     -4.89088073	     -4.63270548	     -4.81776299	      0.84557487	      0.93419149	      0.41974236	     30.98791226	     -2.95505003	     -9.64641922	     30.46189267	     30.46189267	      1.16179616	     -3.91236802	     -2.87063767	      9.46726890	     -4.58435211	    -11.69323944	     16.50108850	     16.50108850	     13.08373460	     -8.89201264	     -4.88146998	    -10.45370764	      6.61207508	      1.26869776	     -8.04575866	    -12.59144167	     -9.87811643	     24.82675230	     47.25308589	      0.00000000	      0.00000000	     23.32576208	    -19.17854788	     -7.81153125	     63.79710353	     47.35154616	      0.00000000	      0.00000000
     35.34600000	     -5.02297344	     -4.44016908	     -5.06958583	      0.84560284	      0.93360724	      0.42052243	     30.34801627	     -2.71580533	    -10.29595896	     26.13162322	     26.13162322	      1.49927528	     -1.46147710	     -1.83402152	      8.81183844	     -4.35036511	    -12.02067651	     15.91741727	     15.91741727	     13.28087678	     -8.67274717	     -5.13893737	    -10.39106299	      6.47481020	      1.43524901	     -9.48729382	    -12.63969914	    -10.34061674	     24.26453320	     47.28736662	      0.00000000	      0.00000000	     23.88538434	    -19.30040834	     -8.05912794	     64.86511885	     47.39352335	      0.00000000	      0.00000000
     35.35900000	     -5.26241895	     -4.22644190	     -5.33492540	      0.84573612	      0.93269787	      0.42155378	     29.79134328	     -2.34993718	    -10.63769197	     22.03373328	     22.03373328	      1.59467879	      0.35072325	     -0.76278235	      8.33508508	     -4.12249204	    -12.27313469	     15.47185717	     15.47185717	     13.52244957	     -8.57443815	     -5.34578604	    -10.12435912	      6.32027457	      1.44260862	    -10.69723813	    -12.64751938	    -10.52192980	     23.91800110	     47.30149195	      0.00000000	      0.00000000	     24.22337914	    -19.55231831	     -8.24883525	     65.64738675	     47.42356066	      0.00000000	      0.00000000
     35.37200000	     -5.20639051	     -4.00188457	     -5.55753741	      0.84624872	      0.93209782	      0.42248903	     29.16036795	     -2.25658670	    -11.67667333	     19.02351265	     19.02351265	      3.19902802	      3.39643198	      4.06243112	      7.34222811	     -3.79927546	    -12.54901384	     14.64363561	     14.64363561	     13.28688385	     -8.55418828	     -6.63938916	    -10.31538019	      6.13175613	      1.30590475	    -12.06906682	    -12.66927127	    -12.10613912	     24.44818586	     47.35041919	      0.00000000	      0.00000000	     23.74496132	    -19.87112890	     -9.00064282	     68.33725619	     47.52755924	      0.00000000	      0.00000000
     35.38500000	     -5.29223982	     -3.75262719	     -5.77562801	      0.84684662	      0.93116962	      0.42372037	     28.57747658	     -1.99182806	    -12.17773239	     16.13886473	     16.13886473	      3.20938919	      4.82024234	      5.11978612	      6.62798241	     -3.50134136	    -12.78575981	     14.09510139	     14.09510139	     13.55931362	     -8.40671472	     -6.80703288	    -10.15944212	      5.91532903	      1.45348356	    -13.13879834	    -12.68519626	    -12.23861553	     24.06938639	     47.36102487	      0.00000000	      0.00000000	     24.01389199	    -19.93455908	     -9.13620987	     68.98617851	     47.55069963	      0.00000000	      0.00000000
     35.39800000	     -5.35209835	     -3.47857684	     -5.99095730	      0.84763848	      0.93019089	      0.42502560	     28.09428055	     -1.82134247	    -12.69387234	     14.04403564	     14.04403564	      3.36152501	      6.13986307	      6.16778439	      5.84953136	     -3.16648300	    -13.01694492	     13.49951767	     13.49951767	     13.78458299	     -8.20487518	     -7.03376073	    -10.05219585	      5.71813409	      1.60595471	    -14.09215929	    -12.63636345	    -12.38115240	     23.86976637	     47.36583515	      0.00000000	      0.00000000	     24.13639430	    -19.97177772	     -9.26913633	     69.78765798	     47.57496283	      0.00000000	      0.00000000
     35.41100000	     -5.30856807	     -3.28574290	     -6.16734557	      0.84869486	      0.92932263	      0.42644023	     27.60858153	     -1.66668310	    -13.38244544	     12.75917525	     12.75917525	      3.60513821	      7.21409967	      7.28749123	      4.90075852	     -2.89626018	    -13.20100140	     12.82165156	     12.82165156	     14.00000423	     -8.03067224	     -7.34339560	    -10.05179547	      5.54556200	      1.74892841	    -14.99434780	    -12.63881579	    -12.58204658	     23.82147205	     47.36786055	      0.00000000	      0.00000000	     24.06484393	    -19.97171210	     -9.41976113	     70.76825420	     47.60360084	      0.00000000	      0.00000000
     35.42400000	     -5.34475095	     -3.08723544	     -6.30951964	      0.84977074	      0.92826857	      0.42784616	     27.44334843	     -1.64055019	    -14.03214578	     12.47363143	     12.47363143	      4.43355034	      8.01081047	      9.70763701	      4.05655975	     -2.59593511	    -13.12825511	     12.12027915	     12.12027915	     13.83878255	     -8.37053031	     -8.26695407	     -9.95915366	      5.43993001	      1.50823905	    -15.73926553	    -12.61772437	    -13.26167908	     24.52813136	     47.34369415	      0.00000000	      0.00000000	     23.32803412	    -20.18252262	     -9.96107202	     72.56571643	     47.67738543	      0.00000000	      0.00000000
     35.43700000	     -5.47348862	     -2.95809519	     -6.39748591	      0.85090424	      0.92693756	      0.42951151	     27.30325324	     -1.50513678	    -14.27076666	     12.44619650	     12.44619650	      4.38121552	      7.88368214	      9.72493245	      3.58483161	     -2.49466596	    -13.13107137	     12.02087737	     12.02087737	     14.27406335	     -8.42140158	     -8.40306644	     -9.68705811	      5.39105280	      1.46536522	    -16.13392676	    -12.57305230	    -13.27433001	     24.38031579	     47.34599681	      0.00000000	      0.00000000	     23.24820559	    -20.21331747	    -10.00186976	     72.61460319	     47.68085874	      0.00000000	      0.00000000
     35.45000000	     -5.56882487	     -2.89181646	     -6.43127207	      0.85228781	      0.92573573	      0.43114555	     27.01703867	     -1.36377756	    -14.51155388	     12.61439946	     12.61439946	      4.22299613	      7.70073422	      9.66897850	      3.02871779	     -2.44575480	    -13.11613993	     11.85133569	     11.85133569	     14.66426137	     -8.40967506	     -8.48545514	     -9.43256510	      5.45173772	      1.49214533	    -16.46858732	    -12.50140770	    -13.27982340	     24.25715587	     47.34695113	      0.00000000	      0.00000000	     23.03859386	    -20.12159456	    -10.00895729	     72.69153856	     47.68155121	      0.00000000	      0.00000000
     35.46300000	     -5.43144093	     -2.77125280	     -6.49974921	      0.85408653	      0.92480455	      0.43289764	     26.60106218	     -1.33105593	    -14.43134915	     13.28419449	     13.28419449	      3.90203250	      7.14699233	      8.48904971	      1.90658092	     -2.24164025	    -13.20329884	     11.11823581	     11.11823581	     15.05063221	     -8.05485125	     -8.16704767	     -9.44734027	      5.42440775	      1.78224643	    -16.78087911	    -12.41460735	    -13.29236969	     24.18326441	     47.33838577	      0.00000000	      0.00000000	     22.68400846	    -19.75452638	    -10.08110928	     73.38034999	     47.69777012	      0.00000000	      0.00000000
